<?xml version="1.0" encoding="utf-8"?>
<!-- Generator: Adobe Illustrator 16.0.0, SVG Export Plug-In . SVG Version: 6.00 Build 0)  -->
<!DOCTYPE svg PUBLIC "-//W3C//DTD SVG 1.1//EN" "http://www.w3.org/Graphics/SVG/1.1/DTD/svg11.dtd">
<svg version="1.1" id="Layer_1" xmlns="http://www.w3.org/2000/svg" xmlns:xlink="http://www.w3.org/1999/xlink" x="0px" y="0px"
	 width="105.707px" height="69px" viewBox="0 0 105.707 69" enable-background="new 0 0 105.707 69" xml:space="preserve">
<g>
	<circle fill="#FFFFFF" cx="52.546" cy="34.521" r="16.104"/>
	<path fill="#FFFFFF" d="M105.682,33.833c0.059-0.733-0.445-1.825-1.404-3.169C97.678,19.4,69.553,0,53.024,0
		c-0.055,0-0.113,0.007-0.168,0.008C52.8,0.007,52.738,0,52.682,0C33.627,0-0.36,27.042,0.015,33.833
		c-0.021,0.219-0.002,0.456,0.015,0.692c-0.037,0.236-0.042,0.452-0.005,0.641c-0.058,0.732,0.447,1.825,1.405,3.169
		C8.031,49.602,36.154,69,52.682,69c0.055,0,0.113-0.007,0.168-0.008C52.906,68.993,52.968,69,53.024,69
		c19.055,0,53.042-27.042,52.667-33.833c0.021-0.219,0.002-0.456-0.016-0.692C105.714,34.238,105.719,34.023,105.682,33.833z
		 M52.733,57.291c-12.519,0-22.667-10.148-22.667-22.667c0-12.519,10.148-22.667,22.667-22.667
		c12.518,0,22.666,10.148,22.666,22.667C75.398,47.143,65.251,57.291,52.733,57.291z"/>
</g>
</svg>
