<svg version="1.1" id="facebook" xmlns="http://www.w3.org/2000/svg" xmlns:xlink="http://www.w3.org/1999/xlink" x="0px" y="0px"
 width="215.999px" height="217.667px" viewBox="0 0 215.999 217.667" enable-background="new 0 0 215.999 217.667"
 xml:space="preserve">
<g>
<path fill-rule="evenodd" clip-rule="evenodd" d="M148.245,214.637c0-27.235,0-54.303,0-81.554c9.097,0,18.118,0,27.262,0
    c1.37-10.627,2.719-21.088,4.093-31.749c-10.54,0-20.878,0-31.322,0c-0.05-0.638-0.117-1.112-0.117-1.587
    c-0.005-6.526-0.018-13.055,0.013-19.582c0.006-1.311,0.101-2.634,0.299-3.929c0.964-6.269,4.354-9.639,10.717-10.357
    c3.04-0.343,6.127-0.306,9.193-0.354c3.948-0.062,7.896-0.036,11.846-0.053c0.101,0,0.199-0.072,0.406-0.151
    c0-9.316,0-18.673,0-28.286c-2.562-0.216-5.162-0.579-7.768-0.628c-7.612-0.145-15.27-0.702-22.835-0.125
    c-18.399,1.403-31.569,14.22-34.036,32.512c-0.43,3.197-0.619,6.443-0.665,9.669c-0.098,6.965-0.03,13.933-0.03,20.899
    c0,0.588,0,1.176,0,1.943c-9.188,0-18.209,0-27.333,0c0,10.628,0,21.074,0,31.705c9.05,0,18.07,0,27.209,0
    c0,27.248,0,54.311,0,81.628c-0.545,0-1.122,0-1.697,0c-32.856,0-65.714,0.004-98.57,0c-7.15-0.002-12.143-4.953-12.143-12.078
    c-0.006-62.149-0.006-124.296,0-186.445c0-7.11,5.016-12.122,12.13-12.122c62.148-0.006,124.297-0.006,186.446,0
    c7.122,0.001,12.068,4.997,12.068,12.151c0.003,62.094,0.002,124.187,0,186.28c0,7.302-4.881,12.213-12.138,12.215
    c-17.114,0.005-34.229,0-51.343,0C149.397,214.637,148.865,214.637,148.245,214.637z"/>
</g>
</svg>