<svg version="1.1" id="instagram" xmlns="http://www.w3.org/2000/svg" xmlns:xlink="http://www.w3.org/1999/xlink" x="0px" y="0px"
  width="215.999px" height="217.667px" viewBox="0 0 215.999 217.667" enable-background="new 0 0 215.999 217.667"
  xml:space="preserve">
  <g>
  <path fill-rule="evenodd" clip-rule="evenodd" d="M164.661,82.292c16.797,0,32.971,0,49.631,0c0.096,1.306,0.283,2.708,0.283,4.11
    c0.016,31.717,0.064,63.435-0.018,95.151c-0.025,10.027-2.9,19.105-9.979,26.465c-5.59,5.813-12.49,8.902-20.459,8.916
    c-48.088,0.079-96.175,0.091-144.262,0.01c-17.104-0.027-39.644-15.271-38.837-39.713c0.981-29.711,0.233-59.481,0.233-89.226
    c0-1.779,0-3.558,0-5.646c19.289,0,38.221,0,57.277,0c-12.034,31.762-6.916,59.125,21.892,78.976
    c20.123,13.864,47.003,12.273,66.744-2.469c11.826-8.834,19.428-20.589,22.713-35.076
    C173.114,109.533,171.034,95.81,164.661,82.292z"/>
  <path fill-rule="evenodd" clip-rule="evenodd" d="M214.478,68.561c-5.801,0-11.129,0-16.455-0.001
    c-12.998-0.002-26.002,0.153-38.994-0.14c-2.619-0.059-5.742-1.18-7.721-2.891c-23.363-20.211-55.62-20.224-78.859,0.056
    c-1.686,1.472-4.165,2.824-6.289,2.845c-20.471,0.208-40.943,0.123-61.416,0.101c-0.955-0.001-1.909-0.199-3.016-0.322
    c0-12.368-1.326-24.81,0.325-36.833c2.229-16.234,19.995-30.1,36.482-30.146c48.743-0.135,97.487-0.113,146.229-0.013
    c15.461,0.032,28.482,13.382,29.574,30.973C215.071,43.956,214.478,55.806,214.478,68.561z M148.151,34.979
    c0,4.434,0.057,8.868-0.018,13.301c-0.07,4.255,2.141,6.665,6.094,6.769c9.082,0.241,18.178,0.253,27.26,0.03
    c3.834-0.094,6.393-2.286,6.402-6.562c0.023-9.195,0.102-18.393-0.027-27.586c-0.053-3.848-2.225-6.157-6.125-6.197
    c-9.088-0.097-18.182-0.118-27.27-0.018c-4.045,0.044-6.307,2.223-6.311,6.47C148.151,25.782,148.155,30.381,148.151,34.979z"/>
  <path fill-rule="evenodd" clip-rule="evenodd" d="M112.431,62.224c26.826,0.293,47.432,22.083,47.062,49.761
    c-0.344,25.853-22.141,47.047-48.137,46.805c-26.214-0.242-47.702-22.479-47.222-48.866
    C64.625,83.069,86.022,61.936,112.431,62.224z"/>
  </g>
  </svg>