<?xml version="1.0" encoding="utf-8"?>
<!-- Generator: Adobe Illustrator 16.0.0, SVG Export Plug-In . SVG Version: 6.00 Build 0)  -->
<!DOCTYPE svg PUBLIC "-//W3C//DTD SVG 1.1//EN" "http://www.w3.org/Graphics/SVG/1.1/DTD/svg11.dtd">
<svg version="1.1" id="Layer_1" xmlns="http://www.w3.org/2000/svg" xmlns:xlink="http://www.w3.org/1999/xlink" x="0px" y="0px"
	 width="39px" height="61.691px" viewBox="0 0 39 61.691" enable-background="new 0 0 39 61.691" xml:space="preserve">
<path fill="none" stroke="#FF475B" stroke-width="3" stroke-miterlimit="10" d="M37.5,42.192c0,9.941-8.059,18-18,18l0,0
	c-9.941,0-18-8.059-18-18V19.5c0-9.941,8.059-18,18-18l0,0c9.941,0,18,8.059,18,18V42.192z"/>
<path fill="none" stroke="#FF475B" stroke-width="3" stroke-miterlimit="10" d="M23.496,21.355c0,2.191-1.775,3.969-3.968,3.969l0,0
	c-2.191,0-3.968-1.776-3.968-3.969v-2.938c0-2.192,1.777-3.968,3.968-3.968l0,0c2.193,0,3.968,1.775,3.968,3.968V21.355z"/>
</svg>
