<?xml version="1.0" encoding="utf-8"?>
<!-- Generator: Adobe Illustrator 16.0.0, SVG Export Plug-In . SVG Version: 6.00 Build 0)  -->
<!DOCTYPE svg PUBLIC "-//W3C//DTD SVG 1.1//EN" "http://www.w3.org/Graphics/SVG/1.1/DTD/svg11.dtd">
<svg version="1.1" id="Layer_1" xmlns="http://www.w3.org/2000/svg" xmlns:xlink="http://www.w3.org/1999/xlink" x="0px" y="0px"
	 width="84.68px" height="84.772px" viewBox="0 0 84.68 84.772" enable-background="new 0 0 84.68 84.772" xml:space="preserve">
<g>
	<path fill="#FFFFFF" d="M84.68,34.957L84.227,3.21c0.001-1.565-1.27-2.835-2.834-2.834L49.871,0L0.83,49.04
		c-1.107,1.106-1.107,2.901,0,4.009l30.893,30.894c1.107,1.106,2.903,1.106,4.01,0L84.68,34.957z M64.266,20.491
		c-2.349-2.349-2.348-6.155,0-8.503c2.35-2.348,6.155-2.348,8.504,0c2.35,2.348,2.347,6.155,0,8.503
		C70.421,22.839,66.616,22.84,64.266,20.491z"/>
</g>
</svg>
