<svg version="1.1" id="twitter" xmlns="http://www.w3.org/2000/svg" xmlns:xlink="http://www.w3.org/1999/xlink" x="0px" y="0px"
  width="217.666px" height="178.61px" viewBox="0 0 217.666 178.61" enable-background="new 0 0 217.666 178.61"
  xml:space="preserve">
  <g>
  <path fill-rule="evenodd" clip-rule="evenodd" d="M210.192,5.585c-3.569,9.876-9.598,17.095-17.228,23.279
    c7.744-0.419,14.906-3.185,22.449-5.165c-0.39,0.612-0.746,1.25-1.174,1.834c-4.952,6.748-10.672,12.784-17.274,17.914
    c-1.81,1.405-2.512,2.862-2.554,5.053c-0.182,9.589-0.807,19.15-2.966,28.529c-7.676,33.352-24.891,60.368-53.448,79.677
    c-15.314,10.354-32.271,16.728-50.632,18.751c-17.236,1.899-34.468,1.777-51.402-2.856c-11.192-3.063-21.685-7.745-31.739-13.473
    c-0.698-0.398-1.347-0.883-2.046-1.726c23.237,1.447,44.388-4.013,63.537-18.395c-19.785-2.28-33.534-11.913-40.72-30.742
    c6.502,0.152,12.481,0.728,18.839-0.857c-21.519-6.958-32.99-21.174-34.13-43.587c5.943,2.759,12.037,4.484,18.639,4.797
    c-8.795-7.004-14.979-15.667-17.254-26.722c-2.246-10.906-0.925-21.38,4.577-31.507c3.622,3.546,7.102,6.951,10.579,10.359
    C48.246,42.317,74.819,53.63,105.37,56.021c0.272,0.021,0.548,0.003,1.128,0.003c-0.065-0.815-0.115-1.535-0.181-2.254
    c-0.802-8.877-0.5-17.565,3.378-25.878c6.931-14.857,23.382-27.695,44.473-25.604c9.62,0.954,17.971,4.542,25.047,10.999
    c2.248,2.052,4.461,2.697,7.222,1.655c6.199-2.339,12.396-4.685,18.578-7.067C206.572,7.276,208.071,6.529,210.192,5.585z"/>
  </g>
  </svg>