<?xml version="1.0" encoding="utf-8"?>
<!-- Generator: Adobe Illustrator 16.0.0, SVG Export Plug-In . SVG Version: 6.00 Build 0)  -->
<!DOCTYPE svg PUBLIC "-//W3C//DTD SVG 1.1//EN" "http://www.w3.org/Graphics/SVG/1.1/DTD/svg11.dtd">
<svg version="1.1" id="Layer_1" xmlns="http://www.w3.org/2000/svg" xmlns:xlink="http://www.w3.org/1999/xlink" x="0px" y="0px"
	 width="183.822px" height="175.824px" viewBox="0 0 183.822 175.824" enable-background="new 0 0 183.822 175.824"
	 xml:space="preserve">
<g>
	<path fill="#FFFFFF" d="M183.823,175.824H0V0h183.822L183.823,175.824L183.823,175.824z M14,161.824h155.822V14H14V161.824z"/>
</g>
<g>
	<path fill="#FFFFFF" d="M40.208,30.261l7.048,32.597l7.901-32.597h10.321l7.617,32.733l7.333-32.733h13.597l-13.954,50.15H68.255
		L60.353,47.95L52.31,80.411H40.137L26.54,30.261H40.208z"/>
</g>
<g>
	<path fill="#FFFFFF" d="M119.102,72.159l-2.776,7.251h-14.45l21.144-50.149h10.605l20.931,50.149H139.96l-2.562-7.251H119.102z
		 M122.803,61.994h11.033l-5.409-17.146h-0.215L122.803,61.994z"/>
</g>
<g>
	<path fill="#FFFFFF" d="M51.882,109.834H31.489v-11.25h54.17v11.25H65.337v38.898H51.882V109.834z"/>
</g>
<g>
	<path fill="#FFFFFF" d="M121.4,109.834h-20.395v-11.25h54.17v11.25h-20.321v38.898H121.4V109.834z"/>
</g>
</svg>
