<?xml version="1.0" encoding="utf-8"?>
<!-- Generator: Adobe Illustrator 16.0.0, SVG Export Plug-In . SVG Version: 6.00 Build 0)  -->
<!DOCTYPE svg PUBLIC "-//W3C//DTD SVG 1.1//EN" "http://www.w3.org/Graphics/SVG/1.1/DTD/svg11.dtd">
<svg version="1.1" id="Layer_1" xmlns="http://www.w3.org/2000/svg" xmlns:xlink="http://www.w3.org/1999/xlink" x="0px" y="0px"
	 width="274.5px" height="127.781px" viewBox="0 0 274.5 127.781" enable-background="new 0 0 274.5 127.781" xml:space="preserve">
<path d="M42.077,40.73h14.492l5.024,29.885l5.861-29.885h12.302l5.604,29.885l4.895-29.885h14.105L93.345,87.039h-14.75
	l-5.281-27.76l-5.088,27.76H53.219L42.077,40.73z"/>
<path d="M117.838,40.73h15.071l16.295,46.309h-14.75l-1.739-6.119h-14.75l-1.803,6.119h-14.621L117.838,40.73z M130.011,71.195
	l-4.637-16.038l-4.702,16.038H130.011z"/>
<path d="M159.785,52.903h-13.333V40.73h41.285v12.173h-13.074v34.136h-14.878V52.903z"/>
<path d="M205.024,52.903h-13.333V40.73h41.285v12.173h-13.074v34.136h-14.878V52.903z"/>
</svg>
