<?xml version="1.0" encoding="utf-8"?>
<!-- Generator: Adobe Illustrator 16.0.0, SVG Export Plug-In . SVG Version: 6.00 Build 0)  -->
<!DOCTYPE svg PUBLIC "-//W3C//DTD SVG 1.1//EN" "http://www.w3.org/Graphics/SVG/1.1/DTD/svg11.dtd">
<svg version="1.1" id="Layer_1" xmlns="http://www.w3.org/2000/svg" xmlns:xlink="http://www.w3.org/1999/xlink" x="0px" y="0px"
	 width="314px" height="167.001px" viewBox="0 0 314 167.001" enable-background="new 0 0 314 167.001" xml:space="preserve">
<path d="M61.577,60.34h14.492l5.024,29.885l5.861-29.885h12.302l5.604,29.885l4.895-29.885h14.105l-11.013,46.309h-14.75
	l-5.281-27.76l-5.088,27.76H72.719L61.577,60.34z"/>
<path d="M137.338,60.34h15.071l16.295,46.309h-14.75l-1.739-6.119h-14.75l-1.803,6.119h-14.621L137.338,60.34z M149.511,90.806
	l-4.637-16.038l-4.702,16.038H149.511z"/>
<path d="M179.285,72.514h-13.333V60.34h41.285v12.173h-13.074v34.136h-14.878V72.514z"/>
<path d="M224.524,72.514h-13.333V60.34h41.285v12.173h-13.074v34.136h-14.878V72.514z"/>
<g>
	<rect x="19.609" y="19.61" fill="none" width="274.781" height="127.781"/>
	<path d="M294.391,0L294.391,0L19.609,0v0H0v0v19.61v127.781v19.609h19.609h274.781H314v-19.609V19.61V0v0H294.391z
		 M294.391,147.392H19.609V19.61h274.781V147.392z"/>
</g>
</svg>
