<?xml version="1.0" encoding="utf-8"?>
<!-- Generator: Adobe Illustrator 16.0.0, SVG Export Plug-In . SVG Version: 6.00 Build 0)  -->
<!DOCTYPE svg PUBLIC "-//W3C//DTD SVG 1.1//EN" "http://www.w3.org/Graphics/SVG/1.1/DTD/svg11.dtd">
<svg version="1.1" xmlns="http://www.w3.org/2000/svg" xmlns:xlink="http://www.w3.org/1999/xlink" x="0px" y="0px"
	 width="556.156px" height="119.91px" viewBox="0 0 556.156 119.91" enable-background="new 0 0 556.156 119.91"
	 xml:space="preserve">
<g id="Layer_1">
</g>
<g id="Layer_2">
	<g>
		<g>
			<g>
				<path fill="#F04B5D" d="M137.99,15.716c-2.768,17.199-11.654,33.444-17.92,49.54c-5.289,13.587-12.891,31.784-6.52,46.214
					c1.3,2.945,5.606,0.398,4.316-2.521c-2.714-6.148-1.584-13.443-0.229-19.773c1.84-8.594,5.013-16.904,8.221-25.065
					c6.011-15.285,14.319-30.705,16.951-47.062C143.32,13.893,138.502,12.54,137.99,15.716L137.99,15.716z"/>
			</g>
		</g>
		<g>
			<g>
				<path fill="#F04B5D" d="M142.68,95.412c-1.417-3.83-3.852-8.92-8.436-9.588c-3.929-0.572-6.979,1.852-9.244,4.801
					c-3.942,5.131-6.625,15.617,0.135,19.713c4.976,3.016,11.792,0.05,16.396-2.228c2.891-1.429,0.356-5.741-2.523-4.317
					c-2.354,1.164-5.536,2.422-7.722,2.676c-0.49,0.058-0.983,0.072-1.478,0.068c-0.6-0.004-0.835-0.065-0.839-0.065
					c-0.379-0.07-0.747-0.185-1.107-0.318c0.602,0.224-0.425-0.269-0.631-0.411c0.578,0.403-0.203-0.229-0.348-0.39
					c-0.384-0.427,0.32,0.457-0.008-0.015c-0.095-0.135-0.177-0.277-0.259-0.42c-0.083-0.146-0.154-0.297-0.225-0.446
					c0.293,0.625,0.053,0.104,0.004-0.035c-0.135-0.388-0.225-0.79-0.297-1.192c-0.112-0.617,0.059,0.572-0.006-0.061
					c-0.02-0.186-0.028-0.373-0.038-0.561c-0.02-0.385-0.01-0.771,0.009-1.154c0.009-0.193,0.147-1.364,0.056-0.727
					c0.069-0.476,0.169-0.947,0.279-1.414c0.752-3.193,2.125-5.834,4.621-7.861c-0.531,0.432,0.33-0.199,0.494-0.297
					c0.143-0.086,0.292-0.162,0.439-0.236c0.516-0.262-0.533,0.199-0.001-0.004c0.294-0.113,0.601-0.188,0.909-0.248
					c-0.785,0.152,0.29,0.016,0.565,0.035c-0.802-0.061,0.18,0.068,0.417,0.148c0.548,0.18-0.514-0.248,0.02,0.012
					c0.159,0.078,0.31,0.17,0.46,0.263c0.108,0.065,1.147,1.053,1.342,1.317c0.954,1.295,1.639,2.78,2.194,4.283
					C138.969,99.737,143.802,98.441,142.68,95.412L142.68,95.412z"/>
			</g>
		</g>
		<g>
			<g>
				<path fill="#F04B5D" d="M293.241,3.115c-6.391,35.529-15.71,70.765-18.607,106.837c-0.258,3.215,4.744,3.19,5,0
					c2.86-35.617,12.119-70.426,18.43-105.509C298.629,1.292,293.811-0.055,293.241,3.115L293.241,3.115z"/>
			</g>
		</g>
		<g>
			<g>
				<path fill="#F04B5D" d="M272.222,83.716c9.415-4.703,21.808-11.905,32.642-8.391c3.076,0.998,4.382-3.83,1.329-4.82
					c-12.278-3.984-25.798,3.55-36.494,8.894C266.814,80.839,269.347,85.152,272.222,83.716L272.222,83.716z"/>
			</g>
		</g>
		<g>
			<g>
				<path fill="#F04B5D" d="M314.143,90.509c-4.974,3.791-10.852,5.715-15.489,0.392c0,1.179,0,2.356,0,3.535
					c1.775-1.974,3.69-3.804,6.519-3.062c2.678,0.705,4.428,4.037,5.604,6.258c1.511,2.851,5.826,0.324,4.317-2.522
					c-2.01-3.79-4.549-6.924-8.594-8.556c-4.308-1.738-8.661,1.32-11.383,4.347c-0.959,1.065-0.932,2.466,0,3.535
					c6.039,6.931,14.805,5.53,21.548,0.392C319.194,92.9,316.708,88.554,314.143,90.509L314.143,90.509z"/>
			</g>
		</g>
		<g>
			<g>
				<path fill="#F04B5D" d="M164.108,100.509c-4.974,3.791-10.852,5.715-15.489,0.392c0,1.179,0,2.356,0,3.535
					c1.775-1.974,3.69-3.804,6.519-3.062c2.678,0.705,4.428,4.037,5.604,6.258c1.511,2.851,5.826,0.324,4.317-2.522
					c-2.01-3.79-4.549-6.924-8.594-8.556c-4.308-1.738-8.661,1.32-11.383,4.347c-0.959,1.065-0.932,2.466,0,3.535
					c6.039,6.931,14.805,5.53,21.548,0.392C169.159,102.9,166.673,98.554,164.108,100.509L164.108,100.509z"/>
			</g>
		</g>
		<g>
			<g>
				<path fill="#F04B5D" d="M367.284,14.58c0.543-0.327,1.062-0.689,1.552-1.088c1.653-1.717,0.989-0.532-0.371-1.38
					c-0.412-0.72-0.824-1.439-1.237-2.159c-2.672,28.129-15.873,55.312-12.347,83.95c0.235,1.908,2.686,3.638,4.269,1.769
					c2.594-3.062,10.027-13.2,14.262-7.303c3.254,4.533,4.521,10.383,7.162,15.273c5.828,10.791,17.771,11.025,25.897,2.621
					c10.094-10.439,13.96-27.127,16.747-40.862c3.086-15.207,4.878-31.296,3.504-46.805c-0.368-4.164-0.924-8.66-2.983-12.374
					c-1.563-2.82-5.883-0.298-4.318,2.523c2.314,4.172,2.393,9.766,2.603,14.397c0.349,7.697-0.131,15.437-0.914,23.093
					c-1.669,16.321-4.922,33.656-12.579,48.322c-2.533,4.853-6.128,10.384-11.522,12.344c-5.811,2.111-9.842-1.573-12.446-6.397
					c-4.03-7.461-7.147-24-19.111-17.526c-3.9,2.11-7.021,5.838-9.833,9.159c1.422,0.589,2.845,1.178,4.267,1.768
					c-3.515-28.548,9.68-55.862,12.348-83.95c0.083-0.871-0.54-1.723-1.238-2.159c-3.011-1.877-4.035,1.007-6.228,2.469
					C362.093,12.042,364.593,16.375,367.284,14.58L367.284,14.58z"/>
			</g>
		</g>
		<g>
			<g>
				<path fill="#F04B5D" d="M25.885,15.945c0.543-0.327,1.062-0.689,1.552-1.088c1.653-1.717,0.989-0.532-0.371-1.38
					c-0.412-0.72-0.824-1.439-1.237-2.159C23.156,39.447,9.955,66.63,13.482,95.268c0.235,1.908,2.686,3.638,4.269,1.769
					c2.594-3.062,10.027-13.2,14.262-7.303c3.254,4.533,4.521,10.383,7.162,15.273c5.828,10.791,17.771,11.025,25.897,2.621
					c10.094-10.439,13.96-27.127,16.747-40.862c3.086-15.207,4.878-31.296,3.504-46.805c-0.368-4.164-0.924-8.66-2.983-12.374
					c-1.563-2.82-5.883-0.298-4.318,2.523c2.314,4.172,2.393,9.766,2.603,14.397c0.349,7.697-0.131,15.437-0.914,23.093
					C78.04,63.921,74.787,81.256,67.13,95.922c-2.533,4.853-6.128,10.384-11.522,12.344c-5.811,2.111-9.842-1.573-12.446-6.397
					c-4.03-7.461-7.147-24-19.111-17.526c-3.9,2.11-7.021,5.838-9.833,9.159c1.422,0.589,2.845,1.178,4.267,1.768
					c-3.515-28.548,9.68-55.862,12.348-83.95c0.083-0.871-0.54-1.723-1.238-2.159c-3.011-1.877-4.035,1.007-6.228,2.469
					C20.694,13.407,23.194,17.74,25.885,15.945L25.885,15.945z"/>
			</g>
		</g>
		<g>
			<g>
				<path fill="#F04B5D" d="M437.658,101.311c-0.136-3.647-0.749-7.905-4.479-9.565c-4.034-1.795-8.14,1.506-10.899,4.094
					c-1.992,1.867,0.147,4.552,2.434,4.179c9.922-1.619,17.763,3.957,25.233,9.625c2.57,1.95,5.058-2.396,2.523-4.317
					c-8.776-6.658-17.64-11.996-29.088-10.127c0.812,1.393,1.622,2.785,2.433,4.178c1.279-1.199,2.546-2.33,4.209-2.975
					c2.632-1.02,2.581,3.46,2.635,4.91C432.777,104.524,437.778,104.537,437.658,101.311L437.658,101.311z"/>
			</g>
		</g>
		<g>
			<g>
				<path fill="#F04B5D" d="M479.292,9.979c0.701-1.62,1.319-4.259,2.808-5.276c-1.224-0.498-2.448-0.996-3.673-1.494
					c7.949,18.892-1.007,42.404-6.585,60.771c-2.971,9.779-6.146,19.557-8.028,29.618c-1.302,6.957-2.151,14.829,1.286,21.319
					c1.509,2.852,5.824,0.324,4.315-2.522c-3.358-6.345-1.41-14.834,0.023-21.437c2.238-10.295,5.64-20.334,8.663-30.416
					c5.362-17.88,12.836-40.389,5.146-58.663c-0.578-1.374-2.197-2.502-3.673-1.494c-2.75,1.879-3.321,4.116-4.6,7.07
					C473.708,10.383,478.015,12.932,479.292,9.979L479.292,9.979z"/>
			</g>
		</g>
		<g>
			<g>
				<path fill="#F04B5D" d="M512.27,9.894c-1.645-0.651-0.855-0.824-1.02,1.346c-0.142,1.856-0.589,3.704-0.991,5.516
					c-1.062,4.766-2.47,9.46-3.889,14.129c-2.933,9.651-6.254,19.176-9.41,28.754c-5.146,15.616-7.685,32.351-11.128,48.413
					c-0.674,3.145,4.146,4.482,4.822,1.33c3.715-17.334,6.672-35.12,12.303-51.951c3.681-11.002,7.455-21.985,10.555-33.169
					c1.12-4.042,6.114-16.804,0.088-19.189C510.598,3.885,509.309,8.722,512.27,9.894L512.27,9.894z"/>
			</g>
		</g>
		<g>
			<g>
				<path fill="#F04B5D" d="M456.173,76.309c15.981-7.177,33.045-11.935,50.012-16.14c15.877-3.935,31.966-7.191,48.157-9.534
					c3.181-0.46,1.822-5.277-1.33-4.821c-33.511,4.848-68.358,12.257-99.362,26.178C450.712,73.31,453.257,77.619,456.173,76.309
					L456.173,76.309z"/>
			</g>
		</g>
		<g>
			<path fill="#F04B5D" d="M203.09,102.774c9.633,0.539,21.09-5.501,18.104-16.617c-0.208-0.775-0.916-1.604-1.746-1.746
				c-6.599-1.128-12.99,2.654-14.596,9.297c-1.383,5.723,2.67,11.679,7.828,13.639c5.579,2.12,12.741-0.424,17.856-2.658
				c5.5-2.401,10.867-5.434,15.424-9.372c2.444-2.111-1.108-5.632-3.535-3.535c-5.574,4.816-12.763,8.463-19.825,10.436
				c-3.482,0.973-7.948,1.576-10.819-1.105c-5.088-4.753-0.174-12.992,6.337-11.878c-0.582-0.582-1.164-1.164-1.746-1.746
				c2.109,7.854-7.185,10.628-13.283,10.287C199.866,97.593,199.884,102.594,203.09,102.774L203.09,102.774z"/>
		</g>
		<g>
			<path fill="#F04B5D" d="M72.587,107.411c9.633,0.539,21.09-5.501,18.104-16.617c-0.208-0.775-0.916-1.604-1.746-1.746
				c-6.599-1.128-12.99,2.654-14.595,9.297c-1.384,5.723,2.67,11.679,7.828,13.639c5.579,2.12,12.741-0.424,17.856-2.658
				c5.5-2.401,10.867-5.434,15.424-9.372c2.444-2.111-1.108-5.632-3.535-3.535c-5.574,4.816-12.763,8.463-19.825,10.436
				c-3.482,0.973-7.948,1.576-10.819-1.105c-5.088-4.753-0.174-12.992,6.337-11.878c-0.582-0.582-1.164-1.164-1.746-1.746
				c2.109,7.854-7.185,10.628-13.283,10.287C69.364,102.23,69.381,107.231,72.587,107.411L72.587,107.411z"/>
		</g>
		<g>
			<path fill="#F04B5D" d="M172.844,113.052c4.203-7.7,3.551-17.029,8.809-24.225c-1.553-0.421-3.106-0.841-4.659-1.262
				c-0.617,5.404,0.709,14.707,7.914,14.979c7.424,0.28,9.416-8.464,9.565-14.245c-1.667,0-3.333,0-5,0
				c0.493,11.973,10.977,18.028,21.379,11.701c2.75-1.672,0.239-5.997-2.523-4.316c-7.025,4.271-13.513,0.924-13.855-7.385
				c-0.132-3.215-4.917-3.23-5,0c-0.058,2.242-0.509,9.941-4.496,9.228c-3.787-0.677-3.274-7.408-2.983-9.962
				c0.313-2.747-3.375-3.02-4.659-1.262c-5.336,7.301-4.596,16.505-8.809,24.225C166.982,113.36,171.3,115.883,172.844,113.052
				L172.844,113.052z"/>
		</g>
	</g>
</g>
</svg>
