<svg version="1.1" id="youtube" xmlns="http://www.w3.org/2000/svg" xmlns:xlink="http://www.w3.org/1999/xlink" x="0px" y="0px"
  width="217.666px" height="96.5px" viewBox="0 0 217.666 96.5" enable-background="new 0 0 217.666 96.5" xml:space="preserve">
  <g>
  <path fill-rule="evenodd" clip-rule="evenodd" d="M151.877,3.354c15.208,0.586,30.343,1.078,45.468,1.789
    c7.765,0.365,12.859,4.502,15.299,11.909c2.179,6.616,2.288,13.524,2.521,20.366c0.411,12.029,0.492,24.076-1.186,36.035
    c-0.4,2.838-1.206,5.699-2.324,8.337c-2.782,6.562-8.348,9.147-15.068,9.556c-20.991,1.275-42,1.734-63.025,0.992
    c-8.061-0.283-16.123-0.508-24.179-0.917c-2.523-0.128-5.065-0.59-7.519-1.214c-4.993-1.27-8.401-4.388-10.314-9.234
    c-2.229-5.646-2.529-11.592-2.883-17.514c-0.793-13.23-0.769-26.467,0.849-39.638c0.407-3.318,1.355-6.688,2.703-9.749
    c2.597-5.895,7.697-8.611,13.894-8.909C121.375,4.431,136.65,3.941,151.877,3.354z M153.356,18.828c0,19.016,0,37.883,0,56.704
    c2.597,0,5.038,0,7.631,0c0-1.179,0-2.207,0-3.52c1.187,0.986,2.09,1.853,3.104,2.561c5.328,3.721,11.207,1.361,11.57-5.1
    c0.515-9.177,0.316-18.395,0.36-27.596c0.007-1.113-0.301-2.242-0.569-3.339c-1.526-6.243-6.846-8.024-11.925-4.001
    c-0.848,0.67-1.631,1.423-2.728,2.389c0-6.281,0-12.138,0-18.098C158.274,18.828,155.894,18.828,153.356,18.828z M138.75,33.273
    c0,0.855,0,1.615,0,2.373c0,9.133-0.077,18.266,0.056,27.396c0.031,2.171-0.729,3.732-2.308,4.902
    c-0.824,0.609-2.184,1.262-2.938,0.967c-0.659-0.258-1.129-1.812-1.137-2.799c-0.08-10.194-0.051-20.389-0.051-30.584
    c0-0.746,0-1.493,0-2.182c-2.87,0-5.442,0-8.066,0c0,11.994-0.008,23.815,0.016,35.637c0.002,0.838,0.189,1.688,0.374,2.514
    c0.951,4.24,4.403,6.04,8.372,4.188c1.504-0.701,2.779-1.9,4.135-2.902c0.465-0.344,0.86-0.78,1.594-1.458c0,1.687,0,2.929,0,4.224
    c2.739,0,5.312,0,7.88,0c0-14.178,0-28.22,0-42.275C144.003,33.273,141.482,33.273,138.75,33.273z M204.593,55.654
    c0-4.026,0.197-7.787-0.041-11.518c-0.447-6.996-4.655-11.351-10.866-11.597c-6.613-0.262-11.467,3.371-12.011,10.452
    c-0.608,7.928-0.504,15.982,0.154,23.91c0.51,6.148,6.005,9.832,12.124,9.35c7.814-0.613,12.241-7.138,10.403-15.279
    c-2.585,0-5.158,0-7.876,0c0,1.72,0.106,3.284-0.028,4.828c-0.163,1.884-1.172,3.256-3.169,3.381
    c-1.846,0.116-3.294-0.855-3.48-2.717c-0.359-3.539-0.431-7.107-0.629-10.811C194.594,55.654,199.528,55.654,204.593,55.654z
     M116.202,26.709c3.285,0,6.287,0,9.261,0c0-2.752,0-5.273,0-7.863c-8.908,0-17.708,0-26.522,0c0,2.698,0,5.269,0,8.066
    c3.004,0,5.864,0,8.848,0c0,16.343,0,32.455,0,48.642c2.853,0,5.565,0,8.414,0C116.202,59.313,116.202,43.202,116.202,26.709z"/>
  <path fill-rule="evenodd" clip-rule="evenodd" d="M59.282,32.838c2.733,0,5.255,0,8.053,0c0,0.795,0,1.545,0,2.295
    c0,10.336-0.031,20.672,0.051,31.007c0.007,0.981,0.502,2.546,1.156,2.784c0.771,0.283,2.111-0.383,2.94-0.994
    c1.589-1.173,2.312-2.75,2.285-4.913c-0.126-9.977-0.056-19.956-0.056-30.102c2.647,0,5.22,0,7.936,0c0,14.149,0,28.334,0,42.644
    c-2.597,0-5.17,0-7.911,0c0-1.32,0-2.562,0-4.223c-0.935,0.857-1.527,1.518-2.23,2.022c-1.254,0.9-2.48,1.945-3.887,2.509
    c-3.779,1.514-6.999-0.26-7.931-4.188c-0.195-0.822-0.388-1.673-0.39-2.512C59.274,57.139,59.282,45.107,59.282,32.838z"/>
  <path fill-rule="evenodd" clip-rule="evenodd" d="M32.106,18.297c-3.24,10.4-6.457,20.49-9.491,30.635
    c-0.714,2.39-1.076,4.957-1.139,7.453c-0.156,6.351-0.052,12.708-0.052,19.18c-2.837,0-5.5,0-8.345,0
    c-0.048-0.474-0.144-1.008-0.149-1.542c-0.02-1.77-0.163-3.556,0.018-5.306c1.239-12.053-1.697-23.389-5.67-34.592
    C5.465,29.01,3.99,23.774,2.27,18.301c2.838,0,5.49-0.075,8.129,0.071c0.459,0.025,1.095,0.921,1.263,1.523
    c1.609,5.786,3.131,11.597,4.689,17.396c0.191,0.714,0.443,1.41,1.089,2.107c1.176-4.394,2.354-8.786,3.529-13.18
    c0.565-2.115,1.203-4.216,1.657-6.354c0.252-1.187,0.728-1.645,1.975-1.595C27,18.364,29.405,18.297,32.106,18.297z"/>
  <path fill-rule="evenodd" clip-rule="evenodd" d="M52.942,54.581c0,4.163,0.383,8.371-0.092,12.479
    c-0.666,5.746-5.291,9.396-11.002,9.401c-5.685,0.004-10.188-3.704-11.079-9.39c-0.38-2.426-0.414-4.926-0.393-7.391
    c0.051-5.932-0.146-11.901,0.454-17.785c0.634-6.219,4.872-9.512,10.976-9.501c6.093,0.011,10.312,3.347,11.031,9.492
    c0.488,4.177,0.093,8.457,0.093,12.69C52.934,54.578,52.938,54.58,52.942,54.581z M38.429,54.216c0,1.696-0.005,3.394,0.001,5.089
    c0.007,2.121-0.078,4.248,0.062,6.359c0.145,2.16,1.481,3.506,3.234,3.562c1.829,0.061,3.2-1.342,3.462-3.571
    c0.058-0.489,0.04-0.987,0.04-1.482c0.003-6.503,0.024-13.007-0.021-19.51c-0.007-1.034-0.016-2.288-0.567-3.046
    c-0.615-0.846-1.85-1.705-2.813-1.705c-0.964,0.002-2.164,0.875-2.817,1.711c-0.532,0.682-0.539,1.871-0.558,2.839
    C38.391,47.712,38.429,50.965,38.429,54.216z"/>
  <path fill-rule="evenodd" clip-rule="evenodd" d="M160.854,54.429c0-3.824-0.012-7.648,0.006-11.473
    c0.009-1.704,1.595-3.146,3.665-3.306c1.733-0.136,2.854,0.652,3.189,2.402c0.133,0.692,0.28,1.396,0.282,2.096
    c0.022,6.655,0.023,13.311,0.003,19.966c-0.003,0.771-0.145,1.547-0.282,2.31c-0.314,1.756-1.287,2.857-3.167,2.757
    c-2.123-0.112-3.688-1.64-3.693-3.491C160.847,61.936,160.854,58.183,160.854,54.429z"/>
  <path fill-rule="evenodd" clip-rule="evenodd" d="M196.709,49.288c-2.677,0-4.858,0-7.497,0c0.178-2.536,0.225-5.036,0.566-7.497
    c0.23-1.672,1.646-2.152,3.18-2.162c1.551-0.008,2.931,0.517,3.166,2.18C196.464,44.216,196.519,46.662,196.709,49.288z"/>
  </g>
  </svg>